<svg width="32" height="32" viewBox="0 0 32 32" fill="none" xmlns="http://www.w3.org/2000/svg">
<g id=".Icons/Close">
<path id="close" fill-rule="evenodd" clip-rule="evenodd" d="M27.7218 4.27883C27.3526 3.90966 26.7541 3.90966 26.3849 4.27883L16.0003 14.6634L5.61571 4.27883C5.24654 3.90966 4.648 3.90966 4.27883 4.27883C3.90966 4.648 3.90966 5.24654 4.27883 5.61571L14.6634 16.0003L4.27883 26.3849C3.90966 26.7541 3.90966 27.3526 4.27883 27.7218C4.648 28.0909 5.24654 28.0909 5.61571 27.7218L16.0003 17.3372L26.3849 27.7218C26.7541 28.0909 27.3526 28.0909 27.7218 27.7218C28.0909 27.3526 28.0909 26.7541 27.7218 26.3849L17.3372 16.0003L27.7218 5.61571C28.0909 5.24654 28.0909 4.648 27.7218 4.27883Z" fill="#1F2229"/>
</g>
</svg>
